<svg xmlns="http://www.w3.org/2000/svg" width="16.004" height="16" viewBox="0 0 16.004 16">
    <path data-name="Path 6828" d="M15.945 5.714a1.223 1.223 0 0 0-1.073-.845l-4.119-.327a.035.035 0 0 1-.031-.02L9.136.75a1.232 1.232 0 0 0-2.267 0L5.282 4.522a.036.036 0 0 1-.031.02l-4.119.327a1.22 1.22 0 0 0-.7 2.147l3.139 2.658a.024.024 0 0 1 .009.026l-.959 3.974a1.216 1.216 0 0 0 .466 1.269A1.231 1.231 0 0 0 4.455 15l3.527-2.13a.042.042 0 0 1 .042 0L11.55 15a1.231 1.231 0 0 0 1.367-.061 1.215 1.215 0 0 0 .466-1.268L12.424 9.7a.024.024 0 0 1 .009-.025l3.139-2.658a1.213 1.213 0 0 0 .373-1.3" transform="translate(0 .41)" style="fill:#f53b3b"/>
</svg>
