<svg xmlns="http://www.w3.org/2000/svg" width="16" height="16" viewBox="0 0 16 16">
    <g data-name="Ellipse 45" style="stroke:#ccc;fill:none">
        <circle cx="8" cy="8" r="8" style="stroke:none"/>
        <circle cx="8" cy="8" r="7.5" style="fill:none"/>
    </g>
    <path data-name="Path 6805" d="M2.15-2.375v.075h1.224v-.072a1.857 1.857 0 0 1 1.02-1.848A2.3 2.3 0 0 0 5.618-6.3a2.339 2.339 0 0 0-2.6-2.3A2.407 2.407 0 0 0 .387-6.238h1.3a1.278 1.278 0 0 1 1.327-1.284A1.214 1.214 0 0 1 4.31-6.3a1.61 1.61 0 0 1-.888 1.38A2.464 2.464 0 0 0 2.15-2.375zM1.958-.563a.855.855 0 0 0 .852.852.867.867 0 0 0 .852-.852.863.863 0 0 0-.852-.852.851.851 0 0 0-.852.852z" transform="translate(4.998 12.157)" style="fill:#ccc"/>
</svg>
