<svg xmlns="http://www.w3.org/2000/svg" width="148" height="32" viewBox="0 0 148 32">
    <g data-name="그룹 3">
        <path data-name="패스 1" d="M0 28.795V.641S11.44.564 11.468.592q7.151 0 10.686 3.749c2.357 2.5 3.471 6.206 3.535 10.1a23.23 23.23 0 0 1-.894 6.979 12.91 12.91 0 0 1-2.721 5.064 11.4 11.4 0 0 1-3.714 2.851 10.558 10.558 0 0 1-4.429.9H0v-1.436m8.844-.942h1.616a4.97 4.97 0 0 0 2.844-.8 5.453 5.453 0 0 0 1.836-2.058 14.7 14.7 0 0 0 1.112-4.02 30.141 30.141 0 0 0 .383-5.135 36.285 36.285 0 0 0-.5-6.359 12.555 12.555 0 0 0-1.475-4.147 4.424 4.424 0 0 0-1.8-1.668 5.28 5.28 0 0 0-2.56-.678H8.846z" transform="translate(.385 .74)" style="fill:#fff"/>
        <path data-name="사각형 1873" transform="translate(29.729 1.375)" style="fill:#fff" d="M0 0h8.62v29.564H0z"/>
        <path data-name="패스 2" d="m98.818.976 7.482.013s8.54 29.406 8.52 29.406l-9.111.011-1.677-6.476h-8.5l-2.221 6.476h-3.358zM96.3 20.987h6.968L99.846 7.381z" transform="translate(-49.409 .524)" style="fill:#fff"/>
        <path data-name="패스 3" d="M285.137.439v29.4h7.85L293 0a56.483 56.483 0 0 1-7.862.439" transform="translate(-157.453 1.064)" style="fill:#fff"/>
        <path data-name="패스 4" d="M312.173.439v29.4h7.85L320.034 0a56.482 56.482 0 0 1-7.861.439" transform="translate(-172.419 1.064)" style="fill:#fff"/>
        <path data-name="패스 5" d="M188.383 30.448V1.036h-8.775L174.6 18.794l-5.038-17.735h-8.648v29.366h2.836v-20.09l5.889 20.07h4.81L180.121 10v20.406l8.262.042" transform="translate(-88.689 .491)" style="fill:#fff"/>
        <path data-name="패스 6" d="M252.588 36.482a2.755 2.755 0 0 1-1.156.439c-1.5.062-1.364-1.873-1.364-1.873l-.019-13.454a3.794 3.794 0 0 0-1.792-3.237 11.88 11.88 0 0 0-5.122-1.4c-4.844-.208-6.752.381-6.752.381-3.295.74-4.035 2.336-4.035 2.336-1.11 1.445-.521 4.289-.521 4.289l3.873.74s-1.218-2.914-.124-4.532a3.2 3.2 0 0 1 2.744-1.356s2.313-.308 3.314 1.017a3.285 3.285 0 0 1-.123 4.039s-.817 1.31-4.825 2.559a11.66 11.66 0 0 0-4.439 2.3 6.433 6.433 0 0 0-2.019 5.457 5.706 5.706 0 0 0 1.631 3.826c1.961 1.847 5 1.708 5.736 1.658a6.453 6.453 0 0 0 5.123-2.605c.809 2.255 3.78 2.455 3.78 2.455a15.6 15.6 0 0 0 6.844-1.041zm-11.542-.216c-.3.239-1.908.925-2.457-.427a8.754 8.754 0 0 1-.561-3.011s-.092-2.964 1.326-4.32a4.277 4.277 0 0 1 1.249-.994 5.911 5.911 0 0 0 1.572-1.268l.031 6.135s.143 2.85-1.16 3.885" transform="translate(-127.035 -8.299)" style="fill:#fff"/>
    </g>
</svg>
